<svg height="881" width="1116" xmlns:xlink="http://www.w3.org/1999/xlink" xmlns="http://www.w3.org/2000/svg" version="1.1"><defs><clipPath id="XUZHgIuvMJlp"><path d="M 0 0 L 1116 0 L 1116 881 L 0 881 L 0 0 Z" stroke="none" fill="none"></path></clipPath></defs><g clip-path="url(#XUZHgIuvMJlp)" transform="scale(1,1)"><g><rect fill-opacity="1" height="881" width="1116" y="0" x="0" stroke="none" fill="rgb(255,255,255)"></rect><path stroke-miterlimit="10" stroke-opacity="1" d="M 468.5 2.5 L 468.5 881.5" paint-order="fill stroke markers" stroke="rgb(37,37,37)" fill="none"></path><path stroke-miterlimit="10" stroke-opacity="1" d="M 468.5 1.5 L 464.5 5.5" paint-order="fill stroke markers" stroke="rgb(37,37,37)" fill="none"></path><path stroke-miterlimit="10" stroke-opacity="1" d="M 468.5 1.5 L 472.5 5.5" paint-order="fill stroke markers" stroke="rgb(37,37,37)" fill="none"></path><path stroke-miterlimit="10" stroke-opacity="1" d="M 0.5 467.5 L 1114.5 467.5" paint-order="fill stroke markers" stroke="rgb(37,37,37)" fill="none"></path><path stroke-miterlimit="10" stroke-opacity="1" d="M 1115.5 467.5 L 1111.5 463.5" paint-order="fill stroke markers" stroke="rgb(37,37,37)" fill="none"></path><path stroke-miterlimit="10" stroke-opacity="1" d="M 1115.5 467.5 L 1111.5 471.5" paint-order="fill stroke markers" stroke="rgb(37,37,37)" fill="none"></path><path stroke-miterlimit="10" stroke-opacity="1" d="M 0.5 467.5 L 0.5 470.5" paint-order="fill stroke markers" stroke="rgb(37,37,37)" fill="none"></path><path stroke-miterlimit="10" stroke-opacity="1" d="M 58.5 467.5 L 58.5 470.5" paint-order="fill stroke markers" stroke="rgb(37,37,37)" fill="none"></path><path stroke-miterlimit="10" stroke-opacity="1" d="M 117.5 467.5 L 117.5 470.5" paint-order="fill stroke markers" stroke="rgb(37,37,37)" fill="none"></path><path stroke-miterlimit="10" stroke-opacity="1" d="M 175.5 467.5 L 175.5 470.5" paint-order="fill stroke markers" stroke="rgb(37,37,37)" fill="none"></path><path stroke-miterlimit="10" stroke-opacity="1" d="M 234.5 467.5 L 234.5 470.5" paint-order="fill stroke markers" stroke="rgb(37,37,37)" fill="none"></path><path stroke-miterlimit="10" stroke-opacity="1" d="M 293.5 467.5 L 293.5 470.5" paint-order="fill stroke markers" stroke="rgb(37,37,37)" fill="none"></path><path stroke-miterlimit="10" stroke-opacity="1" d="M 351.5 467.5 L 351.5 470.5" paint-order="fill stroke markers" stroke="rgb(37,37,37)" fill="none"></path><path stroke-miterlimit="10" stroke-opacity="1" d="M 410.5 467.5 L 410.5 470.5" paint-order="fill stroke markers" stroke="rgb(37,37,37)" fill="none"></path><path stroke-miterlimit="10" stroke-opacity="1" d="M 468.5 467.5 L 468.5 470.5" paint-order="fill stroke markers" stroke="rgb(37,37,37)" fill="none"></path><path stroke-miterlimit="10" stroke-opacity="1" d="M 527.5 467.5 L 527.5 470.5" paint-order="fill stroke markers" stroke="rgb(37,37,37)" fill="none"></path><path stroke-miterlimit="10" stroke-opacity="1" d="M 585.5 467.5 L 585.5 470.5" paint-order="fill stroke markers" stroke="rgb(37,37,37)" fill="none"></path><path stroke-miterlimit="10" stroke-opacity="1" d="M 644.5 467.5 L 644.5 470.5" paint-order="fill stroke markers" stroke="rgb(37,37,37)" fill="none"></path><path stroke-miterlimit="10" stroke-opacity="1" d="M 703.5 467.5 L 703.5 470.5" paint-order="fill stroke markers" stroke="rgb(37,37,37)" fill="none"></path><path stroke-miterlimit="10" stroke-opacity="1" d="M 761.5 467.5 L 761.5 470.5" paint-order="fill stroke markers" stroke="rgb(37,37,37)" fill="none"></path><path stroke-miterlimit="10" stroke-opacity="1" d="M 820.5 467.5 L 820.5 470.5" paint-order="fill stroke markers" stroke="rgb(37,37,37)" fill="none"></path><path stroke-miterlimit="10" stroke-opacity="1" d="M 878.5 467.5 L 878.5 470.5" paint-order="fill stroke markers" stroke="rgb(37,37,37)" fill="none"></path><path stroke-miterlimit="10" stroke-opacity="1" d="M 937.5 467.5 L 937.5 470.5" paint-order="fill stroke markers" stroke="rgb(37,37,37)" fill="none"></path><path stroke-miterlimit="10" stroke-opacity="1" d="M 996.5 467.5 L 996.5 470.5" paint-order="fill stroke markers" stroke="rgb(37,37,37)" fill="none"></path><path stroke-miterlimit="10" stroke-opacity="1" d="M 1054.5 467.5 L 1054.5 470.5" paint-order="fill stroke markers" stroke="rgb(37,37,37)" fill="none"></path><path stroke-miterlimit="10" stroke-opacity="1" d="M 465.5 877.5 L 468.5 877.5" paint-order="fill stroke markers" stroke="rgb(37,37,37)" fill="none"></path><path stroke-miterlimit="10" stroke-opacity="1" d="M 465.5 819.5 L 468.5 819.5" paint-order="fill stroke markers" stroke="rgb(37,37,37)" fill="none"></path><path stroke-miterlimit="10" stroke-opacity="1" d="M 465.5 760.5 L 468.5 760.5" paint-order="fill stroke markers" stroke="rgb(37,37,37)" fill="none"></path><path stroke-miterlimit="10" stroke-opacity="1" d="M 465.5 702.5 L 468.5 702.5" paint-order="fill stroke markers" stroke="rgb(37,37,37)" fill="none"></path><path stroke-miterlimit="10" stroke-opacity="1" d="M 465.5 643.5 L 468.5 643.5" paint-order="fill stroke markers" stroke="rgb(37,37,37)" fill="none"></path><path stroke-miterlimit="10" stroke-opacity="1" d="M 465.5 585.5 L 468.5 585.5" paint-order="fill stroke markers" stroke="rgb(37,37,37)" fill="none"></path><path stroke-miterlimit="10" stroke-opacity="1" d="M 465.5 526.5 L 468.5 526.5" paint-order="fill stroke markers" stroke="rgb(37,37,37)" fill="none"></path><path stroke-miterlimit="10" stroke-opacity="1" d="M 465.5 409.5 L 468.5 409.5" paint-order="fill stroke markers" stroke="rgb(37,37,37)" fill="none"></path><path stroke-miterlimit="10" stroke-opacity="1" d="M 465.5 350.5 L 468.5 350.5" paint-order="fill stroke markers" stroke="rgb(37,37,37)" fill="none"></path><path stroke-miterlimit="10" stroke-opacity="1" d="M 465.5 292.5 L 468.5 292.5" paint-order="fill stroke markers" stroke="rgb(37,37,37)" fill="none"></path><path stroke-miterlimit="10" stroke-opacity="1" d="M 465.5 233.5 L 468.5 233.5" paint-order="fill stroke markers" stroke="rgb(37,37,37)" fill="none"></path><path stroke-miterlimit="10" stroke-opacity="1" d="M 465.5 175.5 L 468.5 175.5" paint-order="fill stroke markers" stroke="rgb(37,37,37)" fill="none"></path><path stroke-miterlimit="10" stroke-opacity="1" d="M 465.5 116.5 L 468.5 116.5" paint-order="fill stroke markers" stroke="rgb(37,37,37)" fill="none"></path><path stroke-miterlimit="10" stroke-opacity="1" d="M 465.5 57.5 L 468.5 57.5" paint-order="fill stroke markers" stroke="rgb(37,37,37)" fill="none"></path><path stroke-width="2.5" stroke-miterlimit="10" stroke-linejoin="round" stroke-linecap="round" stroke-opacity="0.6980392156862745" d="M 761.7109352936056 467.89218944943065 C 761.7109352936056 629.6449849288307 630.5843863244088 760.7715338980274 468.8315908450089 760.7715338980274 C 307.0787953656089 760.7715338980274 175.9522463964122 629.6449849288307 175.9522463964122 467.89218944943065 C 175.9522463964122 306.1393939700306 307.0787953656089 175.0128450008338 468.8315908450089 175.0128450008338 C 630.5843863244088 175.0128450008338 761.7109352936056 306.1393939700306 761.7109352936056 467.89218944943065 Z" paint-order="fill stroke markers" stroke="rgb(0,0,0)" fill="none"></path><path stroke-width="2.5" stroke-miterlimit="10" stroke-linejoin="round" stroke-linecap="round" stroke-opacity="0.6980392156862745" d="M 761.7109352936056 886 L 761.7109352936056 -5" paint-order="fill stroke markers" stroke="rgb(0,0,0)" fill="none"></path><path stroke-width="2.5" stroke-miterlimit="10" stroke-linejoin="round" stroke-linecap="round" stroke-opacity="0.6980392156862745" d="M 685.3132127362486 886 L 685.3132127362486 -5" paint-order="fill stroke markers" stroke="rgb(0,0,0)" fill="none"></path><path stroke-width="2.5" stroke-miterlimit="10" stroke-linejoin="round" stroke-linecap="round" stroke-opacity="0.6980392156862745" d="M 468.8315908450089 467.89218944943065 L 1116 -121.83250360564472" paint-order="fill stroke markers" stroke="rgb(0,0,0)" fill="none"></path><path fill-opacity="1" d="M 473.8315908450089 467.89218944943065 C 473.8315908450089 470.6536131985846 471.59301459416287 472.89218944943065 468.8315908450089 472.89218944943065 C 466.07016709585497 472.89218944943065 463.8315908450089 470.6536131985846 463.8315908450089 467.89218944943065 C 463.8315908450089 465.1307657002767 466.07016709585497 462.89218944943065 468.8315908450089 462.89218944943065 C 471.59301459416287 462.89218944943065 473.8315908450089 465.1307657002767 473.8315908450089 467.89218944943065 Z" paint-order="stroke fill markers" stroke="none" fill="rgb(21,101,192)"></path><path stroke-miterlimit="10" stroke-linejoin="round" stroke-linecap="round" stroke-opacity="1" d="M 473.8315908450089 467.89218944943065 C 473.8315908450089 470.6536131985846 471.59301459416287 472.89218944943065 468.8315908450089 472.89218944943065 C 466.07016709585497 472.89218944943065 463.8315908450089 470.6536131985846 463.8315908450089 467.89218944943065 C 463.8315908450089 465.1307657002767 466.07016709585497 462.89218944943065 468.8315908450089 462.89218944943065 C 471.59301459416287 462.89218944943065 473.8315908450089 465.1307657002767 473.8315908450089 467.89218944943065 Z" paint-order="fill stroke markers" stroke="rgb(0,0,0)" fill="none"></path><text fill-opacity="1" text-anchor="start" y="458" x="473" text-decoration="normal" font-weight="normal" font-style="normal" font-size="16px" font-family="geogebra-sans-serif, sans-serif" stroke="none" fill="rgb(21,101,192)">O</text><text stroke-width="3" stroke-miterlimit="10" stroke-linejoin="bevel" stroke-opacity="1" text-anchor="start" y="458" x="473" text-decoration="normal" font-weight="normal" font-style="normal" font-size="16px" font-family="geogebra-sans-serif, sans-serif" stroke="rgb(255,255,255)" fill="none">O</text><text fill-opacity="1" text-anchor="start" y="458" x="473" text-decoration="normal" font-weight="normal" font-style="normal" font-size="16px" font-family="geogebra-sans-serif, sans-serif" stroke="none" fill="rgb(21,101,192)">O</text><path fill-opacity="1" d="M 766.7109352936056 467.89218944943065 C 766.7109352936056 470.6536131985846 764.4723590427596 472.89218944943065 761.7109352936056 472.89218944943065 C 758.9495115444516 472.89218944943065 756.7109352936056 470.6536131985846 756.7109352936056 467.89218944943065 C 756.7109352936056 465.1307657002767 758.9495115444516 462.89218944943065 761.7109352936056 462.89218944943065 C 764.4723590427596 462.89218944943065 766.7109352936056 465.1307657002767 766.7109352936056 467.89218944943065 Z" paint-order="stroke fill markers" stroke="none" fill="rgb(21,101,192)"></path><path stroke-miterlimit="10" stroke-linejoin="round" stroke-linecap="round" stroke-opacity="1" d="M 766.7109352936056 467.89218944943065 C 766.7109352936056 470.6536131985846 764.4723590427596 472.89218944943065 761.7109352936056 472.89218944943065 C 758.9495115444516 472.89218944943065 756.7109352936056 470.6536131985846 756.7109352936056 467.89218944943065 C 756.7109352936056 465.1307657002767 758.9495115444516 462.89218944943065 761.7109352936056 462.89218944943065 C 764.4723590427596 462.89218944943065 766.7109352936056 465.1307657002767 766.7109352936056 467.89218944943065 Z" paint-order="fill stroke markers" stroke="rgb(0,0,0)" fill="none"></path><text fill-opacity="1" text-anchor="start" y="458" x="766" text-decoration="normal" font-weight="normal" font-style="normal" font-size="16px" font-family="geogebra-sans-serif, sans-serif" stroke="none" fill="rgb(21,101,192)">A</text><text stroke-width="3" stroke-miterlimit="10" stroke-linejoin="bevel" stroke-opacity="1" text-anchor="start" y="458" x="766" text-decoration="normal" font-weight="normal" font-style="normal" font-size="16px" font-family="geogebra-sans-serif, sans-serif" stroke="rgb(255,255,255)" fill="none">A</text><text fill-opacity="1" text-anchor="start" y="458" x="766" text-decoration="normal" font-weight="normal" font-style="normal" font-size="16px" font-family="geogebra-sans-serif, sans-serif" stroke="none" fill="rgb(21,101,192)">A</text><path fill-opacity="1" d="M 690.3132127362486 270.6258269139539 C 690.3132127362486 273.38725066310786 688.0746364854026 275.6258269139539 685.3132127362486 275.6258269139539 C 682.5517889870946 275.6258269139539 680.3132127362486 273.38725066310786 680.3132127362486 270.6258269139539 C 680.3132127362486 267.86440316479997 682.5517889870946 265.6258269139539 685.3132127362486 265.6258269139539 C 688.0746364854026 265.6258269139539 690.3132127362486 267.86440316479997 690.3132127362486 270.6258269139539 Z" paint-order="stroke fill markers" stroke="none" fill="rgb(21,101,192)"></path><path stroke-miterlimit="10" stroke-linejoin="round" stroke-linecap="round" stroke-opacity="1" d="M 690.3132127362486 270.6258269139539 C 690.3132127362486 273.38725066310786 688.0746364854026 275.6258269139539 685.3132127362486 275.6258269139539 C 682.5517889870946 275.6258269139539 680.3132127362486 273.38725066310786 680.3132127362486 270.6258269139539 C 680.3132127362486 267.86440316479997 682.5517889870946 265.6258269139539 685.3132127362486 265.6258269139539 C 688.0746364854026 265.6258269139539 690.3132127362486 267.86440316479997 690.3132127362486 270.6258269139539 Z" paint-order="fill stroke markers" stroke="rgb(0,0,0)" fill="none"></path><text fill-opacity="1" text-anchor="start" y="261" x="689" text-decoration="normal" font-weight="normal" font-style="normal" font-size="16px" font-family="geogebra-sans-serif, sans-serif" stroke="none" fill="rgb(21,101,192)">B</text><text stroke-width="3" stroke-miterlimit="10" stroke-linejoin="bevel" stroke-opacity="1" text-anchor="start" y="261" x="689" text-decoration="normal" font-weight="normal" font-style="normal" font-size="16px" font-family="geogebra-sans-serif, sans-serif" stroke="rgb(255,255,255)" fill="none">B</text><text fill-opacity="1" text-anchor="start" y="261" x="689" text-decoration="normal" font-weight="normal" font-style="normal" font-size="16px" font-family="geogebra-sans-serif, sans-serif" stroke="none" fill="rgb(21,101,192)">B</text><path fill-opacity="1" d="M 765.7109352936056 201.00928993856166 C 765.7109352936056 203.21842893788482 763.9200742929288 205.00928993856166 761.7109352936056 205.00928993856166 C 759.5017962942825 205.00928993856166 757.7109352936056 203.21842893788482 757.7109352936056 201.00928993856166 C 757.7109352936056 198.80015093923848 759.5017962942825 197.00928993856166 761.7109352936056 197.00928993856166 C 763.9200742929288 197.00928993856166 765.7109352936056 198.80015093923848 765.7109352936056 201.00928993856166 Z" paint-order="stroke fill markers" stroke="none" fill="rgb(97,97,97)"></path><path stroke-miterlimit="10" stroke-linejoin="round" stroke-linecap="round" stroke-opacity="1" d="M 765.7109352936056 201.00928993856166 C 765.7109352936056 203.21842893788482 763.9200742929288 205.00928993856166 761.7109352936056 205.00928993856166 C 759.5017962942825 205.00928993856166 757.7109352936056 203.21842893788482 757.7109352936056 201.00928993856166 C 757.7109352936056 198.80015093923848 759.5017962942825 197.00928993856166 761.7109352936056 197.00928993856166 C 763.9200742929288 197.00928993856166 765.7109352936056 198.80015093923848 765.7109352936056 201.00928993856166 Z" paint-order="fill stroke markers" stroke="rgb(0,0,0)" fill="none"></path><text fill-opacity="1" text-anchor="start" y="193" x="766" text-decoration="normal" font-weight="normal" font-style="normal" font-size="16px" font-family="geogebra-sans-serif, sans-serif" stroke="none" fill="rgb(97,97,97)">C</text><text stroke-width="3" stroke-miterlimit="10" stroke-linejoin="bevel" stroke-opacity="1" text-anchor="start" y="193" x="766" text-decoration="normal" font-weight="normal" font-style="normal" font-size="16px" font-family="geogebra-sans-serif, sans-serif" stroke="rgb(255,255,255)" fill="none">C</text><text fill-opacity="1" text-anchor="start" y="193" x="766" text-decoration="normal" font-weight="normal" font-style="normal" font-size="16px" font-family="geogebra-sans-serif, sans-serif" stroke="none" fill="rgb(97,97,97)">C</text><path fill-opacity="1" d="M 689.3132127362486 467.89218944943065 C 689.3132127362486 470.1013284487538 687.5223517355718 471.89218944943065 685.3132127362486 471.89218944943065 C 683.1040737369254 471.89218944943065 681.3132127362486 470.1013284487538 681.3132127362486 467.89218944943065 C 681.3132127362486 465.6830504501075 683.1040737369254 463.89218944943065 685.3132127362486 463.89218944943065 C 687.5223517355718 463.89218944943065 689.3132127362486 465.6830504501075 689.3132127362486 467.89218944943065 Z" paint-order="stroke fill markers" stroke="none" fill="rgb(97,97,97)"></path><path stroke-miterlimit="10" stroke-linejoin="round" stroke-linecap="round" stroke-opacity="1" d="M 689.3132127362486 467.89218944943065 C 689.3132127362486 470.1013284487538 687.5223517355718 471.89218944943065 685.3132127362486 471.89218944943065 C 683.1040737369254 471.89218944943065 681.3132127362486 470.1013284487538 681.3132127362486 467.89218944943065 C 681.3132127362486 465.6830504501075 683.1040737369254 463.89218944943065 685.3132127362486 463.89218944943065 C 687.5223517355718 463.89218944943065 689.3132127362486 465.6830504501075 689.3132127362486 467.89218944943065 Z" paint-order="fill stroke markers" stroke="rgb(0,0,0)" fill="none"></path><text fill-opacity="1" text-anchor="start" y="460" x="689" text-decoration="normal" font-weight="normal" font-style="normal" font-size="16px" font-family="geogebra-sans-serif, sans-serif" stroke="none" fill="rgb(97,97,97)">H</text><text stroke-width="3" stroke-miterlimit="10" stroke-linejoin="bevel" stroke-opacity="1" text-anchor="start" y="460" x="689" text-decoration="normal" font-weight="normal" font-style="normal" font-size="16px" font-family="geogebra-sans-serif, sans-serif" stroke="rgb(255,255,255)" fill="none">H</text><text fill-opacity="1" text-anchor="start" y="460" x="689" text-decoration="normal" font-weight="normal" font-style="normal" font-size="16px" font-family="geogebra-sans-serif, sans-serif" stroke="none" fill="rgb(97,97,97)">H</text></g></g></svg>