<svg height="881" width="1116" xmlns:xlink="http://www.w3.org/1999/xlink" xmlns="http://www.w3.org/2000/svg" version="1.1"><defs><clipPath id="WoJnQiJsHcIE"><path d="M 0 0 L 1116 0 L 1116 881 L 0 881 L 0 0 Z" stroke="none" fill="none"></path></clipPath></defs><g clip-path="url(#WoJnQiJsHcIE)" transform="scale(1,1)"><g><rect fill-opacity="1" height="881" width="1116" y="0" x="0" stroke="none" fill="rgb(255,255,255)"></rect><path stroke-miterlimit="10" stroke-opacity="1" d="M 419.5 2.5 L 419.5 881.5" paint-order="fill stroke markers" stroke="rgb(37,37,37)" fill="none"></path><path stroke-miterlimit="10" stroke-opacity="1" d="M 419.5 1.5 L 415.5 5.5" paint-order="fill stroke markers" stroke="rgb(37,37,37)" fill="none"></path><path stroke-miterlimit="10" stroke-opacity="1" d="M 419.5 1.5 L 423.5 5.5" paint-order="fill stroke markers" stroke="rgb(37,37,37)" fill="none"></path><path stroke-miterlimit="10" stroke-opacity="1" d="M 0.5 446.5 L 1114.5 446.5" paint-order="fill stroke markers" stroke="rgb(37,37,37)" fill="none"></path><path stroke-miterlimit="10" stroke-opacity="1" d="M 1115.5 446.5 L 1111.5 442.5" paint-order="fill stroke markers" stroke="rgb(37,37,37)" fill="none"></path><path stroke-miterlimit="10" stroke-opacity="1" d="M 1115.5 446.5 L 1111.5 450.5" paint-order="fill stroke markers" stroke="rgb(37,37,37)" fill="none"></path><path stroke-miterlimit="10" stroke-opacity="1" d="M 20.5 446.5 L 20.5 449.5" paint-order="fill stroke markers" stroke="rgb(37,37,37)" fill="none"></path><path stroke-miterlimit="10" stroke-opacity="1" d="M 100.5 446.5 L 100.5 449.5" paint-order="fill stroke markers" stroke="rgb(37,37,37)" fill="none"></path><path stroke-miterlimit="10" stroke-opacity="1" d="M 180.5 446.5 L 180.5 449.5" paint-order="fill stroke markers" stroke="rgb(37,37,37)" fill="none"></path><path stroke-miterlimit="10" stroke-opacity="1" d="M 260.5 446.5 L 260.5 449.5" paint-order="fill stroke markers" stroke="rgb(37,37,37)" fill="none"></path><path stroke-miterlimit="10" stroke-opacity="1" d="M 339.5 446.5 L 339.5 449.5" paint-order="fill stroke markers" stroke="rgb(37,37,37)" fill="none"></path><path stroke-miterlimit="10" stroke-opacity="1" d="M 419.5 446.5 L 419.5 449.5" paint-order="fill stroke markers" stroke="rgb(37,37,37)" fill="none"></path><path stroke-miterlimit="10" stroke-opacity="1" d="M 499.5 446.5 L 499.5 449.5" paint-order="fill stroke markers" stroke="rgb(37,37,37)" fill="none"></path><path stroke-miterlimit="10" stroke-opacity="1" d="M 578.5 446.5 L 578.5 449.5" paint-order="fill stroke markers" stroke="rgb(37,37,37)" fill="none"></path><path stroke-miterlimit="10" stroke-opacity="1" d="M 658.5 446.5 L 658.5 449.5" paint-order="fill stroke markers" stroke="rgb(37,37,37)" fill="none"></path><path stroke-miterlimit="10" stroke-opacity="1" d="M 738.5 446.5 L 738.5 449.5" paint-order="fill stroke markers" stroke="rgb(37,37,37)" fill="none"></path><path stroke-miterlimit="10" stroke-opacity="1" d="M 817.5 446.5 L 817.5 449.5" paint-order="fill stroke markers" stroke="rgb(37,37,37)" fill="none"></path><path stroke-miterlimit="10" stroke-opacity="1" d="M 897.5 446.5 L 897.5 449.5" paint-order="fill stroke markers" stroke="rgb(37,37,37)" fill="none"></path><path stroke-miterlimit="10" stroke-opacity="1" d="M 977.5 446.5 L 977.5 449.5" paint-order="fill stroke markers" stroke="rgb(37,37,37)" fill="none"></path><path stroke-miterlimit="10" stroke-opacity="1" d="M 1056.5 446.5 L 1056.5 449.5" paint-order="fill stroke markers" stroke="rgb(37,37,37)" fill="none"></path><path stroke-miterlimit="10" stroke-opacity="1" d="M 416.5 844.5 L 419.5 844.5" paint-order="fill stroke markers" stroke="rgb(37,37,37)" fill="none"></path><path stroke-miterlimit="10" stroke-opacity="1" d="M 416.5 765.5 L 419.5 765.5" paint-order="fill stroke markers" stroke="rgb(37,37,37)" fill="none"></path><path stroke-miterlimit="10" stroke-opacity="1" d="M 416.5 685.5 L 419.5 685.5" paint-order="fill stroke markers" stroke="rgb(37,37,37)" fill="none"></path><path stroke-miterlimit="10" stroke-opacity="1" d="M 416.5 605.5 L 419.5 605.5" paint-order="fill stroke markers" stroke="rgb(37,37,37)" fill="none"></path><path stroke-miterlimit="10" stroke-opacity="1" d="M 416.5 526.5 L 419.5 526.5" paint-order="fill stroke markers" stroke="rgb(37,37,37)" fill="none"></path><path stroke-miterlimit="10" stroke-opacity="1" d="M 416.5 366.5 L 419.5 366.5" paint-order="fill stroke markers" stroke="rgb(37,37,37)" fill="none"></path><path stroke-miterlimit="10" stroke-opacity="1" d="M 416.5 287.5 L 419.5 287.5" paint-order="fill stroke markers" stroke="rgb(37,37,37)" fill="none"></path><path stroke-miterlimit="10" stroke-opacity="1" d="M 416.5 207.5 L 419.5 207.5" paint-order="fill stroke markers" stroke="rgb(37,37,37)" fill="none"></path><path stroke-miterlimit="10" stroke-opacity="1" d="M 416.5 127.5 L 419.5 127.5" paint-order="fill stroke markers" stroke="rgb(37,37,37)" fill="none"></path><path stroke-miterlimit="10" stroke-opacity="1" d="M 416.5 47.5 L 419.5 47.5" paint-order="fill stroke markers" stroke="rgb(37,37,37)" fill="none"></path><path stroke-width="2.5" stroke-miterlimit="10" stroke-linejoin="round" stroke-linecap="round" stroke-opacity="0.6980392156862745" d="M 817.9007042210134 446.42224482235775 C 817.9007042210134 666.5034284719651 639.4896540781165 844.9144786148622 419.4084704285094 844.9144786148622 C 199.32728677890236 844.9144786148622 20.916236636005465 666.5034284719651 20.916236636005465 446.42224482235775 C 20.916236636005465 226.34106117275041 199.32728677890236 47.93001102985329 419.4084704285094 47.93001102985329 C 639.4896540781165 47.93001102985329 817.9007042210134 226.34106117275041 817.9007042210134 446.42224482235775 Z" paint-order="fill stroke markers" stroke="rgb(0,0,0)" fill="none"></path><path stroke-width="2.5" stroke-miterlimit="10" stroke-linejoin="round" stroke-linecap="round" stroke-opacity="0.6980392156862745" d="M 817.9007042210134 886 L 817.9007042210134 -5" paint-order="fill stroke markers" stroke="rgb(0,0,0)" fill="none"></path><path stroke-width="2.5" stroke-miterlimit="10" stroke-linejoin="round" stroke-linecap="round" stroke-opacity="0.6980392156862745" d="M 713.9538069898076 886 L 713.9538069898076 -5" paint-order="fill stroke markers" stroke="rgb(0,0,0)" fill="none"></path><path stroke-width="2.5" stroke-miterlimit="10" stroke-linejoin="round" stroke-linecap="round" stroke-opacity="0.6980392156862745" d="M 419.4084704285094 446.42224482235775 L 1116 -188.33869243923033" paint-order="fill stroke markers" stroke="rgb(0,0,0)" fill="none"></path><path fill-opacity="1" d="M 424.4084704285094 446.42224482235775 C 424.4084704285094 449.1836685715117 422.16989417766337 451.42224482235775 419.4084704285094 451.42224482235775 C 416.64704667935547 451.42224482235775 414.4084704285094 449.1836685715117 414.4084704285094 446.42224482235775 C 414.4084704285094 443.6608210732038 416.64704667935547 441.42224482235775 419.4084704285094 441.42224482235775 C 422.16989417766337 441.42224482235775 424.4084704285094 443.6608210732038 424.4084704285094 446.42224482235775 Z" paint-order="stroke fill markers" stroke="none" fill="rgb(21,101,192)"></path><path stroke-miterlimit="10" stroke-linejoin="round" stroke-linecap="round" stroke-opacity="1" d="M 424.4084704285094 446.42224482235775 C 424.4084704285094 449.1836685715117 422.16989417766337 451.42224482235775 419.4084704285094 451.42224482235775 C 416.64704667935547 451.42224482235775 414.4084704285094 449.1836685715117 414.4084704285094 446.42224482235775 C 414.4084704285094 443.6608210732038 416.64704667935547 441.42224482235775 419.4084704285094 441.42224482235775 C 422.16989417766337 441.42224482235775 424.4084704285094 443.6608210732038 424.4084704285094 446.42224482235775 Z" paint-order="fill stroke markers" stroke="rgb(0,0,0)" fill="none"></path><text fill-opacity="1" text-anchor="start" y="436" x="423" text-decoration="normal" font-weight="normal" font-style="normal" font-size="16px" font-family="geogebra-sans-serif, sans-serif" stroke="none" fill="rgb(21,101,192)">O</text><text stroke-width="3" stroke-miterlimit="10" stroke-linejoin="bevel" stroke-opacity="1" text-anchor="start" y="436" x="423" text-decoration="normal" font-weight="normal" font-style="normal" font-size="16px" font-family="geogebra-sans-serif, sans-serif" stroke="rgb(255,255,255)" fill="none">O</text><text fill-opacity="1" text-anchor="start" y="436" x="423" text-decoration="normal" font-weight="normal" font-style="normal" font-size="16px" font-family="geogebra-sans-serif, sans-serif" stroke="none" fill="rgb(21,101,192)">O</text><path fill-opacity="1" d="M 822.9007042210134 446.42224482235775 C 822.9007042210134 449.1836685715117 820.6621279701674 451.42224482235775 817.9007042210134 451.42224482235775 C 815.1392804718594 451.42224482235775 812.9007042210134 449.1836685715117 812.9007042210134 446.42224482235775 C 812.9007042210134 443.6608210732038 815.1392804718594 441.42224482235775 817.9007042210134 441.42224482235775 C 820.6621279701674 441.42224482235775 822.9007042210134 443.6608210732038 822.9007042210134 446.42224482235775 Z" paint-order="stroke fill markers" stroke="none" fill="rgb(21,101,192)"></path><path stroke-miterlimit="10" stroke-linejoin="round" stroke-linecap="round" stroke-opacity="1" d="M 822.9007042210134 446.42224482235775 C 822.9007042210134 449.1836685715117 820.6621279701674 451.42224482235775 817.9007042210134 451.42224482235775 C 815.1392804718594 451.42224482235775 812.9007042210134 449.1836685715117 812.9007042210134 446.42224482235775 C 812.9007042210134 443.6608210732038 815.1392804718594 441.42224482235775 817.9007042210134 441.42224482235775 C 820.6621279701674 441.42224482235775 822.9007042210134 443.6608210732038 822.9007042210134 446.42224482235775 Z" paint-order="fill stroke markers" stroke="rgb(0,0,0)" fill="none"></path><text fill-opacity="1" text-anchor="start" y="436" x="822" text-decoration="normal" font-weight="normal" font-style="normal" font-size="16px" font-family="geogebra-sans-serif, sans-serif" stroke="none" fill="rgb(21,101,192)">A</text><text stroke-width="3" stroke-miterlimit="10" stroke-linejoin="bevel" stroke-opacity="1" text-anchor="start" y="436" x="822" text-decoration="normal" font-weight="normal" font-style="normal" font-size="16px" font-family="geogebra-sans-serif, sans-serif" stroke="rgb(255,255,255)" fill="none">A</text><text fill-opacity="1" text-anchor="start" y="436" x="822" text-decoration="normal" font-weight="normal" font-style="normal" font-size="16px" font-family="geogebra-sans-serif, sans-serif" stroke="none" fill="rgb(21,101,192)">A</text><path fill-opacity="1" d="M 718.9538069898076 178.02122935682092 C 718.9538069898076 180.7826531059749 716.7152307389616 183.02122935682092 713.9538069898076 183.02122935682092 C 711.1923832406536 183.02122935682092 708.9538069898076 180.7826531059749 708.9538069898076 178.02122935682092 C 708.9538069898076 175.25980560766695 711.1923832406536 173.02122935682092 713.9538069898076 173.02122935682092 C 716.7152307389616 173.02122935682092 718.9538069898076 175.25980560766695 718.9538069898076 178.02122935682092 Z" paint-order="stroke fill markers" stroke="none" fill="rgb(21,101,192)"></path><path stroke-miterlimit="10" stroke-linejoin="round" stroke-linecap="round" stroke-opacity="1" d="M 718.9538069898076 178.02122935682092 C 718.9538069898076 180.7826531059749 716.7152307389616 183.02122935682092 713.9538069898076 183.02122935682092 C 711.1923832406536 183.02122935682092 708.9538069898076 180.7826531059749 708.9538069898076 178.02122935682092 C 708.9538069898076 175.25980560766695 711.1923832406536 173.02122935682092 713.9538069898076 173.02122935682092 C 716.7152307389616 173.02122935682092 718.9538069898076 175.25980560766695 718.9538069898076 178.02122935682092 Z" paint-order="fill stroke markers" stroke="rgb(0,0,0)" fill="none"></path><text fill-opacity="1" text-anchor="start" y="168" x="718" text-decoration="normal" font-weight="normal" font-style="normal" font-size="16px" font-family="geogebra-sans-serif, sans-serif" stroke="none" fill="rgb(21,101,192)">B</text><text stroke-width="3" stroke-miterlimit="10" stroke-linejoin="bevel" stroke-opacity="1" text-anchor="start" y="168" x="718" text-decoration="normal" font-weight="normal" font-style="normal" font-size="16px" font-family="geogebra-sans-serif, sans-serif" stroke="rgb(255,255,255)" fill="none">B</text><text fill-opacity="1" text-anchor="start" y="168" x="718" text-decoration="normal" font-weight="normal" font-style="normal" font-size="16px" font-family="geogebra-sans-serif, sans-serif" stroke="none" fill="rgb(21,101,192)">B</text><path fill-opacity="1" d="M 821.9007042210135 83.30082706811851 C 821.9007042210135 85.50996606744168 820.1098432203366 87.30082706811851 817.9007042210135 87.30082706811851 C 815.6915652216903 87.30082706811851 813.9007042210135 85.50996606744168 813.9007042210135 83.30082706811851 C 813.9007042210135 81.09168806879534 815.6915652216903 79.30082706811851 817.9007042210135 79.30082706811851 C 820.1098432203366 79.30082706811851 821.9007042210135 81.09168806879534 821.9007042210135 83.30082706811851 Z" paint-order="stroke fill markers" stroke="none" fill="rgb(97,97,97)"></path><path stroke-miterlimit="10" stroke-linejoin="round" stroke-linecap="round" stroke-opacity="1" d="M 821.9007042210135 83.30082706811851 C 821.9007042210135 85.50996606744168 820.1098432203366 87.30082706811851 817.9007042210135 87.30082706811851 C 815.6915652216903 87.30082706811851 813.9007042210135 85.50996606744168 813.9007042210135 83.30082706811851 C 813.9007042210135 81.09168806879534 815.6915652216903 79.30082706811851 817.9007042210135 79.30082706811851 C 820.1098432203366 79.30082706811851 821.9007042210135 81.09168806879534 821.9007042210135 83.30082706811851 Z" paint-order="fill stroke markers" stroke="rgb(0,0,0)" fill="none"></path><text fill-opacity="1" text-anchor="start" y="75" x="822" text-decoration="normal" font-weight="normal" font-style="normal" font-size="16px" font-family="geogebra-sans-serif, sans-serif" stroke="none" fill="rgb(97,97,97)">C</text><text stroke-width="3" stroke-miterlimit="10" stroke-linejoin="bevel" stroke-opacity="1" text-anchor="start" y="75" x="822" text-decoration="normal" font-weight="normal" font-style="normal" font-size="16px" font-family="geogebra-sans-serif, sans-serif" stroke="rgb(255,255,255)" fill="none">C</text><text fill-opacity="1" text-anchor="start" y="75" x="822" text-decoration="normal" font-weight="normal" font-style="normal" font-size="16px" font-family="geogebra-sans-serif, sans-serif" stroke="none" fill="rgb(97,97,97)">C</text><path fill-opacity="1" d="M 717.9538069898076 446.42224482235775 C 717.9538069898076 448.6313838216809 716.1629459891308 450.42224482235775 713.9538069898076 450.42224482235775 C 711.7446679904845 450.42224482235775 709.9538069898076 448.6313838216809 709.9538069898076 446.42224482235775 C 709.9538069898076 444.2131058230346 711.7446679904845 442.42224482235775 713.9538069898076 442.42224482235775 C 716.1629459891308 442.42224482235775 717.9538069898076 444.2131058230346 717.9538069898076 446.42224482235775 Z" paint-order="stroke fill markers" stroke="none" fill="rgb(97,97,97)"></path><path stroke-miterlimit="10" stroke-linejoin="round" stroke-linecap="round" stroke-opacity="1" d="M 717.9538069898076 446.42224482235775 C 717.9538069898076 448.6313838216809 716.1629459891308 450.42224482235775 713.9538069898076 450.42224482235775 C 711.7446679904845 450.42224482235775 709.9538069898076 448.6313838216809 709.9538069898076 446.42224482235775 C 709.9538069898076 444.2131058230346 711.7446679904845 442.42224482235775 713.9538069898076 442.42224482235775 C 716.1629459891308 442.42224482235775 717.9538069898076 444.2131058230346 717.9538069898076 446.42224482235775 Z" paint-order="fill stroke markers" stroke="rgb(0,0,0)" fill="none"></path><text fill-opacity="1" text-anchor="start" y="438" x="718" text-decoration="normal" font-weight="normal" font-style="normal" font-size="16px" font-family="geogebra-sans-serif, sans-serif" stroke="none" fill="rgb(97,97,97)">H</text><text stroke-width="3" stroke-miterlimit="10" stroke-linejoin="bevel" stroke-opacity="1" text-anchor="start" y="438" x="718" text-decoration="normal" font-weight="normal" font-style="normal" font-size="16px" font-family="geogebra-sans-serif, sans-serif" stroke="rgb(255,255,255)" fill="none">H</text><text fill-opacity="1" text-anchor="start" y="438" x="718" text-decoration="normal" font-weight="normal" font-style="normal" font-size="16px" font-family="geogebra-sans-serif, sans-serif" stroke="none" fill="rgb(97,97,97)">H</text></g></g></svg>